<?xml version="1.0" encoding="UTF-8" standalone="no"?>
<!-- Created with Inkscape (http://www.inkscape.org/) -->

<svg
   xmlns:dc="http://purl.org/dc/elements/1.1/"
   xmlns:cc="http://creativecommons.org/ns#"
   xmlns:rdf="http://www.w3.org/1999/02/22-rdf-syntax-ns#"
   xmlns:svg="http://www.w3.org/2000/svg"
   xmlns="http://www.w3.org/2000/svg"
   xmlns:sodipodi="http://sodipodi.sourceforge.net/DTD/sodipodi-0.dtd"
   xmlns:inkscape="http://www.inkscape.org/namespaces/inkscape"
   width="50.969631mm"
   height="21.003811mm"
   viewBox="0 0 50.969632 21.003811"
   version="1.1"
   id="svg5387"
   inkscape:version="0.92.4 (5da689c313, 2019-01-14)"
   sodipodi:docname="ambos.svg"
   inkscape:export-filename="/home/vbettachini/documents/universitet/unlam/mecanicaGeneral/guías/08TensoresInercia/ambos.png"
   inkscape:export-xdpi="100"
   inkscape:export-ydpi="100">
  <defs
     id="defs5381" />
  <sodipodi:namedview
     id="base"
     pagecolor="#ffffff"
     bordercolor="#666666"
     borderopacity="1.0"
     inkscape:pageopacity="0.0"
     inkscape:pageshadow="2"
     inkscape:zoom="1.4"
     inkscape:cx="76.289257"
     inkscape:cy="-29.175363"
     inkscape:document-units="mm"
     inkscape:current-layer="layer1"
     showgrid="false"
     fit-margin-top="0"
     fit-margin-left="0"
     fit-margin-right="0"
     fit-margin-bottom="0"
     inkscape:window-width="1366"
     inkscape:window-height="747"
     inkscape:window-x="0"
     inkscape:window-y="2"
     inkscape:window-maximized="1" />
  <metadata
     id="metadata5384">
    <rdf:RDF>
      <cc:Work
         rdf:about="">
        <dc:format>image/svg+xml</dc:format>
        <dc:type
           rdf:resource="http://purl.org/dc/dcmitype/StillImage" />
        <dc:title></dc:title>
      </cc:Work>
    </rdf:RDF>
  </metadata>
  <g
     inkscape:label="Capa 1"
     inkscape:groupmode="layer"
     id="layer1"
     transform="translate(94.677964,-184.78428)">
    <g
       id="g997"
       transform="translate(0,-20.82691)">
      <path
         style="fill:#1d1d1b;stroke:none;stroke-width:0.01"
         inkscape:connector-curvature="0"
         id="path354"
         d="m -72.358335,223.2481 h 0.24 c 0.25,0 0.35,-0.17 0.35,-0.71 0,-0.53 -0.09,-0.72 -0.35,-0.72 h -0.24 z m -0.3,-1.66 h 0.53 c 0.6,0 0.67,0.39 0.67,0.95 0,0.55 -0.07,0.93 -0.67,0.93 h -0.53 z" />
      <path
         style="fill:#1d1d1b;stroke:none;stroke-width:0.01"
         inkscape:connector-curvature="0"
         id="path359"
         d="m -70.548335,222.5981 v -0.08 c 0,-0.17 -0.06,-0.31 -0.22,-0.31 -0.18,0 -0.23,0.18 -0.23,0.36 v 0.03 z m -0.45,0.19 v 0.08 c 0,0.19 0.02,0.44 0.23,0.44 0.2,0 0.23,-0.24 0.23,-0.32 h 0.28 c 0,0.32 -0.2,0.52 -0.51,0.52 -0.23,0 -0.52,-0.07 -0.52,-0.73 0,-0.37 0.08,-0.76 0.53,-0.76 0.4,0 0.5,0.23 0.5,0.62 v 0.15 z" />
      <path
         style="fill:#1d1d1b;stroke:none;stroke-width:0.01"
         inkscape:connector-curvature="0"
         id="path364"
         d="m -69.538334,223.2781 c 0.159999,0 0.239999,-0.12 0.239999,-0.51 0,-0.33 -0.04,-0.53 -0.239999,-0.53 -0.200001,0 -0.240001,0.2 -0.240001,0.51 0,0.34 0.04,0.53 0.240001,0.53 z m -0.520001,-1.23 h 0.28 v 0.17 h 0.01 c 0.05,-0.12 0.160001,-0.2 0.310001,-0.2 0.32,0 0.47,0.27 0.47,0.77 0,0.59 -0.26,0.72 -0.45,0.72 -0.150001,0 -0.27,-0.08 -0.32,-0.2 v 0.62 h -0.3 z" />
      <path
         style="fill:#1d1d1b;stroke:none;stroke-width:0.01"
         inkscape:connector-curvature="0"
         id="path369"
         d="m -68.148334,222.7181 c -0.08,0.06 -0.23,0.09 -0.32,0.13 -0.09,0.04 -0.12,0.12 -0.12,0.23 0,0.12 0.05,0.22 0.18,0.22 0.17,0 0.26,-0.13 0.26,-0.35 z m 0.26,0.46 c 0,0.05 0.04,0.1 0.08,0.1 0.02,0 0.03,0 0.05,-0.01 v 0.18 c -0.04,0.02 -0.09,0.04 -0.14,0.04 -0.13,0 -0.23,-0.05 -0.24,-0.19 h -0.01 c -0.07,0.14 -0.18,0.21 -0.36,0.21 -0.220001,0 -0.370001,-0.13 -0.370001,-0.41 0,-0.31 0.14,-0.38 0.33,-0.44 l 0.230001,-0.06 c 0.1,-0.03 0.17,-0.06 0.17,-0.18 0,-0.13 -0.05,-0.21 -0.200001,-0.21 -0.2,0 -0.22,0.13 -0.22,0.27 h -0.269998 c 0,-0.3 0.12,-0.46 0.51,-0.46 0.25,0 0.44,0.09 0.44,0.34 z" />
      <path
         style="fill:#1d1d1b;stroke:none;stroke-width:0.01"
         inkscape:connector-curvature="0"
         id="path374"
         d="m -67.628334,222.0481 h 0.28 v 0.22 h 0.01 c 0.06,-0.16 0.17,-0.26 0.34,-0.26 0.03,0 0.04,0.01 0.06,0.02 v 0.28 c -0.02,0 -0.07,-0.01 -0.12,-0.01 -0.13,0 -0.29,0.06 -0.29,0.33 v 0.84 h -0.280002 z" />
      <path
         style="fill:#1d1d1b;stroke:none;stroke-width:0.01"
         inkscape:connector-curvature="0"
         id="path379"
         d="m -66.948334,222.0481 h 0.19 v -0.4 h 0.28 v 0.4 h 0.24 v 0.21 h -0.24 v 0.84 c 0,0.11 0.03,0.15 0.13,0.15 0.04,0 0.09,0 0.11,-0.01 v 0.22 c -0.07,0.02 -0.15,0.03 -0.24,0.03 -0.19,0 -0.28,-0.05 -0.28,-0.35 v -0.88 h -0.19 z" />
      <path
         style="fill:#1d1d1b;stroke:none;stroke-width:0.01"
         inkscape:connector-curvature="0"
         id="path384"
         d="m -65.468334,222.7181 c -0.07,0.06 -0.23,0.09 -0.31,0.13 -0.08,0.04 -0.12,0.12 -0.12,0.23 0,0.12 0.06,0.22 0.18,0.22 0.17,0 0.25,-0.13 0.25,-0.35 z m 0.27,0.46 c 0,0.05 0.04,0.1 0.08,0.1 0.02,0 0.04,0 0.05,-0.01 v 0.18 c -0.03,0.02 -0.08,0.04 -0.15,0.04 -0.12,0 -0.23,-0.05 -0.24,-0.19 -0.08,0.14 -0.19,0.21 -0.35,0.21 -0.23,0 -0.37,-0.13 -0.37,-0.41 0,-0.31 0.14,-0.38 0.33,-0.44 l 0.22,-0.06 c 0.1,-0.03 0.16,-0.06 0.16,-0.18 0,-0.13 -0.04,-0.21 -0.19,-0.21 -0.19,0 -0.21,0.13 -0.21,0.27 h -0.27 c 0,-0.3 0.12,-0.46 0.49,-0.46 0.25,0 0.45,0.09 0.45,0.34 z" />
      <path
         style="fill:#1d1d1b;stroke:none;stroke-width:0.01"
         inkscape:connector-curvature="0"
         id="path389"
         d="m -64.918334,222.0481 h 0.28 v 0.17 c 0.07,-0.13 0.21,-0.21 0.34,-0.21 0.2,0 0.29,0.1 0.33,0.22 0.08,-0.14 0.19,-0.22 0.36,-0.22 0.2,0 0.34,0.11 0.34,0.38 v 1.08 h -0.28 v -0.98 c 0,-0.18 -0.06,-0.25 -0.17,-0.25 -0.12,0 -0.23,0.09 -0.23,0.28 v 0.95 h -0.28 v -0.98 c 0,-0.18 -0.06,-0.25 -0.17,-0.25 -0.12,0 -0.23,0.09 -0.23,0.28 v 0.95 h -0.29 z" />
      <path
         style="fill:#1d1d1b;stroke:none;stroke-width:0.01"
         inkscape:connector-curvature="0"
         id="path394"
         d="m -62.318334,222.5981 v -0.08 c 0,-0.17 -0.06,-0.31 -0.22,-0.31 -0.18,0 -0.23,0.18 -0.23,0.36 v 0.03 z m -0.45,0.19 v 0.08 c 0,0.19 0.02,0.44 0.23,0.44 0.2,0 0.23,-0.24 0.23,-0.32 h 0.27 c 0,0.32 -0.18,0.52 -0.5,0.52 -0.23,0 -0.52,-0.07 -0.52,-0.73 0,-0.37 0.08,-0.76 0.52,-0.76 0.41,0 0.51,0.23 0.51,0.62 v 0.15 z" />
      <path
         style="fill:#1d1d1b;stroke:none;stroke-width:0.01"
         inkscape:connector-curvature="0"
         id="path399"
         d="m -61.828334,222.0481 h 0.27 v 0.17 h 0.01 c 0.07,-0.13 0.200001,-0.21 0.360001,-0.21 0.21,0 0.36,0.1 0.36,0.39 v 1.07 h -0.290002 v -0.98 c 0,-0.18 -0.06,-0.25 -0.2,-0.25 -0.12,0 -0.23,0.09 -0.23,0.28 v 0.95 h -0.28 z" />
      <path
         style="fill:#1d1d1b;stroke:none;stroke-width:0.01"
         inkscape:connector-curvature="0"
         id="path404"
         d="m -60.718334,222.0481 h 0.210001 v -0.4 h 0.279999 v 0.4 h 0.230001 v 0.21 h -0.230001 v 0.84 c 0,0.11 0.03,0.15 0.13,0.15 0.04,0 0.07,0 0.100001,-0.01 v 0.22 c -0.06,0.02 -0.140001,0.03 -0.230001,0.03 -0.19,0 -0.279999,-0.05 -0.279999,-0.35 v -0.88 h -0.210001 z" />
      <path
         style="fill:#1d1d1b;stroke:none;stroke-width:0.01"
         inkscape:connector-curvature="0"
         id="path409"
         d="m -59.418333,223.2981 c 0.21,0 0.25,-0.18 0.25,-0.54 0,-0.32 -0.04,-0.54 -0.25,-0.54 -0.2,0 -0.240001,0.22 -0.240001,0.54 0,0.36 0.04,0.54 0.240001,0.54 z m 0,-1.28 c 0.42,0 0.54,0.3 0.54,0.74 0,0.44 -0.13,0.75 -0.54,0.75 -0.390001,0 -0.52,-0.31 -0.52,-0.75 0,-0.44 0.11,-0.74 0.52,-0.74 z" />
      <path
         style="fill:#1d1d1b;stroke:none;stroke-width:0.01"
         inkscape:connector-curvature="0"
         id="path414"
         d="m -57.628333,222.2381 c -0.16,0 -0.22,0.13 -0.22,0.52 0,0.32 0.04,0.52 0.24,0.52 0.21,0 0.25,-0.2 0.25,-0.5 0,-0.35 -0.04,-0.54 -0.27,-0.54 z m 0.27,1.06 h -0.01 c -0.03,0.09 -0.1,0.21 -0.32,0.21 -0.33,0 -0.46,-0.28 -0.46,-0.76 0,-0.64 0.22,-0.74 0.44,-0.74 0.16,0 0.28,0.08 0.33,0.21 v -0.63 h 0.29 v 1.88 h -0.27 z" />
      <path
         style="fill:#1d1d1b;stroke:none;stroke-width:0.01"
         inkscape:connector-curvature="0"
         id="path419"
         d="m -56.148333,222.5981 v -0.08 c 0,-0.17 -0.05,-0.31 -0.22,-0.31 -0.19,0 -0.24,0.18 -0.24,0.36 v 0.03 z m -0.46,0.19 v 0.08 c 0,0.19 0.02,0.44 0.24,0.44 0.21,0 0.23,-0.24 0.23,-0.32 h 0.27 c 0,0.32 -0.19,0.52 -0.51,0.52 -0.23,0 -0.51,-0.07 -0.51,-0.73 0,-0.37 0.08,-0.76 0.52,-0.76 0.4,0 0.51,0.23 0.51,0.62 v 0.15 z" />
      <path
         style="fill:#1d1d1b;stroke:none;stroke-width:0.01"
         inkscape:connector-curvature="0"
         id="path424"
         d="m -55.048333,221.5881 h 0.31 v 1.88 h -0.31 z" />
      <path
         style="fill:#1d1d1b;stroke:none;stroke-width:0.01"
         inkscape:connector-curvature="0"
         id="path429"
         d="m -54.498333,222.0481 h 0.27 v 0.17 c 0.07,-0.13 0.22,-0.21 0.38,-0.21 0.21,0 0.35,0.1 0.35,0.39 v 1.07 h -0.29 v -0.98 c 0,-0.18 -0.05,-0.25 -0.19,-0.25 -0.13,0 -0.24,0.09 -0.24,0.28 v 0.95 h -0.28 z" />
      <path
         style="fill:#1d1d1b;stroke:none;stroke-width:0.01"
         inkscape:connector-curvature="0"
         id="path434"
         d="m -52.768333,223.2281 c 0.22,0 0.24,-0.28 0.24,-0.5 0,-0.24 -0.03,-0.49 -0.22,-0.49 -0.21,0 -0.25,0.21 -0.25,0.47 0,0.24 0.01,0.52 0.23,0.52 z m -0.2,0.35 c 0,0.09 0.08,0.17 0.2,0.17 0.15,0 0.24,-0.1 0.24,-0.26 v -0.23 c -0.06,0.12 -0.19,0.19 -0.32,0.19 -0.34,0 -0.44,-0.32 -0.44,-0.71 0,-0.31 0.05,-0.73 0.46,-0.73 0.17,0 0.29,0.11 0.31,0.21 h 0.01 v -0.17 h 0.269999 v 1.34 c 0,0.35 -0.15,0.56 -0.53,0.56 -0.43,0 -0.48,-0.25 -0.48,-0.37 z" />
      <path
         style="fill:#1d1d1b;stroke:none;stroke-width:0.01"
         inkscape:connector-curvature="0"
         id="path439"
         d="m -51.328332,222.5981 v -0.08 c 0,-0.17 -0.06,-0.31 -0.220001,-0.31 -0.18,0 -0.23,0.18 -0.23,0.36 v 0.03 z m -0.450001,0.19 v 0.08 c 0,0.19 0.02,0.44 0.23,0.44 0.2,0 0.230001,-0.24 0.230001,-0.32 h 0.28 c 0,0.32 -0.200001,0.52 -0.510001,0.52 -0.23,0 -0.52,-0.07 -0.52,-0.73 0,-0.37 0.08,-0.76 0.530001,-0.76 0.4,0 0.5,0.23 0.5,0.62 v 0.15 z" />
      <path
         style="fill:#1d1d1b;stroke:none;stroke-width:0.01"
         inkscape:connector-curvature="0"
         id="path444"
         d="m -50.838333,222.0481 h 0.270001 v 0.17 h 0.01 c 0.07,-0.13 0.2,-0.21 0.36,-0.21 0.22,0 0.36,0.1 0.36,0.39 v 1.07 h -0.28 v -0.98 c 0,-0.18 -0.07,-0.25 -0.21,-0.25 -0.11,0 -0.22,0.09 -0.22,0.28 v 0.95 h -0.29 z" />
      <path
         style="fill:#1d1d1b;stroke:none;stroke-width:0.01"
         inkscape:connector-curvature="0"
         id="path449"
         d="m -49.588332,222.0481 h 0.3 v 1.42 h -0.3 z m 0,-0.48 h 0.3 v 0.28 h -0.3 z" />
      <path
         style="fill:#1d1d1b;stroke:none;stroke-width:0.01"
         inkscape:connector-curvature="0"
         id="path454"
         d="m -48.338332,222.5981 v -0.08 c 0,-0.17 -0.06,-0.31 -0.22,-0.31 -0.18,0 -0.24,0.18 -0.24,0.36 v 0.03 z m -0.46,0.19 v 0.08 c 0,0.19 0.03,0.44 0.24,0.44 0.2,0 0.22,-0.24 0.22,-0.32 h 0.28 c 0,0.32 -0.2,0.52 -0.5,0.52 -0.24,0 -0.52,-0.07 -0.52,-0.73 0,-0.37 0.08,-0.76 0.52,-0.76 0.39,0 0.51,0.23 0.51,0.62 v 0.15 z" />
      <path
         style="fill:#1d1d1b;stroke:none;stroke-width:0.01"
         inkscape:connector-curvature="0"
         id="path459"
         d="m -47.848332,222.0481 h 0.28 v 0.22 h 0.01 c 0.06,-0.16 0.16,-0.26 0.33,-0.26 0.04,0 0.05,0.01 0.07,0.02 v 0.28 c -0.02,0 -0.07,-0.01 -0.12,-0.01 -0.13,0 -0.29,0.06 -0.29,0.33 v 0.84 h -0.28 z" />
      <path
         style="fill:#1d1d1b;stroke:none;stroke-width:0.01"
         inkscape:connector-curvature="0"
         id="path464"
         d="m -47.038332,222.0481 h 0.3 v 1.42 h -0.3 z m 0.17,-0.56 h 0.31 l -0.28,0.38 h -0.2 z" />
      <path
         style="fill:#1d1d1b;stroke:none;stroke-width:0.01"
         inkscape:connector-curvature="0"
         id="path469"
         d="m -45.818331,222.7181 c -0.08,0.06 -0.23,0.09 -0.320001,0.13 -0.08,0.04 -0.11,0.12 -0.11,0.23 0,0.12 0.05,0.22 0.17,0.22 0.17,0 0.260001,-0.13 0.260001,-0.35 z m 0.26,0.46 c 0,0.05 0.03,0.1 0.08,0.1 0.02,0 0.03,0 0.04,-0.01 v 0.18 c -0.03,0.02 -0.08,0.04 -0.130001,0.04 -0.13,0 -0.240001,-0.05 -0.240001,-0.19 h -0.01 c -0.07,0.14 -0.180001,0.21 -0.350001,0.21 -0.229999,0 -0.38,-0.13 -0.38,-0.41 0,-0.31 0.150001,-0.38 0.34,-0.44 l 0.220001,-0.06 c 0.1,-0.03 0.17,-0.06 0.17,-0.18 0,-0.13 -0.05,-0.21 -0.200001,-0.21 -0.19,0 -0.21,0.13 -0.21,0.27 h -0.279999 c 0,-0.3 0.129999,-0.46 0.509999,-0.46 0.240001,0 0.440002,0.09 0.440002,0.34 z" />
      <path
         style="fill:#1d1d1b;stroke:none;stroke-width:0.01"
         inkscape:connector-curvature="0"
         id="path474"
         d="m -43.988333,222.5981 v -0.08 c 0,-0.17 -0.06,-0.31 -0.229999,-0.31 -0.179999,0 -0.23,0.18 -0.23,0.36 v 0.03 z m -0.459999,0.19 v 0.08 c 0,0.19 0.02,0.44 0.23,0.44 0.209999,0 0.24,-0.24 0.24,-0.32 h 0.27 c 0,0.32 -0.19,0.52 -0.51,0.52 -0.23,0 -0.519999,-0.07 -0.519999,-0.73 0,-0.37 0.08,-0.76 0.53,-0.76 0.4,0 0.499999,0.23 0.499999,0.62 v 0.15 z" />
      <path
         style="fill:#1d1d1b;stroke:none;stroke-width:0.01"
         inkscape:connector-curvature="0"
         id="path479"
         d="m -72.678335,224.0781 h 0.31 v 1.88 h -0.31 z" />
      <path
         style="fill:#1d1d1b;stroke:none;stroke-width:0.01"
         inkscape:connector-curvature="0"
         id="path484"
         d="m -72.098335,224.5381 h 0.27 v 0.16 h 0.01 c 0.07,-0.12 0.21,-0.2 0.37,-0.2 0.21,0 0.35,0.1 0.35,0.38 v 1.08 h -0.28 v -0.98 c 0,-0.18 -0.06,-0.25 -0.2,-0.25 -0.12,0 -0.24,0.09 -0.24,0.27 v 0.96 h -0.28 z" />
      <path
         style="fill:#1d1d1b;stroke:none;stroke-width:0.01"
         inkscape:connector-curvature="0"
         id="path489"
         d="m -70.958335,224.5381 h 0.31 l 0.25,1.12 h 0.01 l 0.22,-1.12 h 0.300001 l -0.370001,1.42 h -0.34 z" />
      <path
         style="fill:#1d1d1b;stroke:none;stroke-width:0.01"
         inkscape:connector-curvature="0"
         id="path494"
         d="m -69.008334,225.0981 v -0.08 c 0,-0.18 -0.06,-0.31 -0.220001,-0.31 -0.189999,0 -0.25,0.17 -0.25,0.36 v 0.03 z m -0.470001,0.19 v 0.08 c 0,0.19 0.02,0.43 0.25,0.43 0.200001,0 0.220001,-0.23 0.220001,-0.31 h 0.27 c 0,0.31 -0.19,0.51 -0.5,0.51 -0.240001,0 -0.52,-0.07 -0.52,-0.73 0,-0.36 0.08,-0.77 0.529999,-0.77 0.390001,0 0.5,0.25 0.5,0.64 v 0.15 z" />
      <path
         style="fill:#1d1d1b;stroke:none;stroke-width:0.01"
         inkscape:connector-curvature="0"
         id="path499"
         d="m -67.888334,224.9581 v -0.04 c 0,-0.11 -0.04,-0.21 -0.19,-0.21 -0.11,0 -0.2,0.05 -0.2,0.18 0,0.11 0.05,0.15 0.2,0.21 l 0.18,0.06 c 0.21,0.07 0.31,0.18 0.31,0.41 0,0.3 -0.22,0.43 -0.51,0.43 -0.36,0 -0.47,-0.17 -0.47,-0.44 v -0.05 h 0.25 v 0.04 c 0,0.16 0.07,0.25 0.23,0.25 0.15,0 0.23,-0.08 0.23,-0.21 0,-0.1 -0.05,-0.17 -0.15,-0.2 l -0.23,-0.08 c -0.23,-0.08 -0.32,-0.18 -0.32,-0.41 0,-0.26 0.2,-0.4 0.5,-0.4 0.36,0 0.44,0.22 0.44,0.4 v 0.06 z" />
      <path
         style="fill:#1d1d1b;stroke:none;stroke-width:0.01"
         inkscape:connector-curvature="0"
         id="path504"
         d="m -67.518334,224.5381 h 0.2 v -0.4 h 0.28 v 0.4 h 0.24 v 0.21 h -0.24 v 0.85 c 0,0.11 0.03,0.15 0.14,0.15 0.04,0 0.07,0 0.1,-0.01 v 0.21 c -0.06,0.02 -0.14,0.02 -0.24,0.02 -0.19,0 -0.28,-0.05 -0.28,-0.34 v -0.88 h -0.2 z" />
      <path
         style="fill:#1d1d1b;stroke:none;stroke-width:0.01"
         inkscape:connector-curvature="0"
         id="path509"
         d="m -66.648334,224.5381 h 0.29 v 1.42 h -0.29 z m 0,-0.48 h 0.29 v 0.28 h -0.29 z" />
      <path
         style="fill:#1d1d1b;stroke:none;stroke-width:0.01"
         inkscape:connector-curvature="0"
         id="path514"
         d="m -65.598334,225.7081 c 0.22,0 0.24,-0.27 0.24,-0.5 0,-0.23 -0.02,-0.48 -0.22,-0.48 -0.21,0 -0.24,0.21 -0.24,0.47 0,0.24 0.01,0.51 0.22,0.51 z m -0.2,0.37 c 0,0.09 0.08,0.17 0.21,0.17 0.14,0 0.23,-0.1 0.23,-0.27 v -0.23 c -0.05,0.13 -0.18,0.2 -0.32,0.2 -0.33,0 -0.42,-0.34 -0.42,-0.72 0,-0.31 0.04,-0.73 0.45,-0.73 0.16,0 0.28,0.11 0.3,0.21 h 0.02 v -0.17 h 0.27 v 1.35 c 0,0.34 -0.15,0.55 -0.54,0.55 -0.42,0 -0.47,-0.24 -0.47,-0.36 z" />
      <path
         style="fill:#1d1d1b;stroke:none;stroke-width:0.01"
         inkscape:connector-curvature="0"
         id="path519"
         d="m -64.158334,225.2081 c -0.08,0.06 -0.23,0.1 -0.32,0.14 -0.08,0.03 -0.11,0.12 -0.11,0.22 0,0.12 0.05,0.22 0.17,0.22 0.17,0 0.26,-0.13 0.26,-0.34 z m 0.27,0.46 c 0,0.05 0.04,0.1 0.08,0.1 0.02,0 0.03,-0.01 0.04,-0.01 v 0.18 c -0.03,0.02 -0.08,0.03 -0.13,0.03 -0.13,0 -0.24,-0.05 -0.25,-0.18 h -0.01 c -0.07,0.14 -0.18,0.21 -0.35,0.21 -0.22,0 -0.37,-0.13 -0.37,-0.4 0,-0.31 0.14,-0.38 0.33,-0.44 l 0.22,-0.06 c 0.1,-0.03 0.17,-0.06 0.17,-0.18 0,-0.13 -0.05,-0.21 -0.2,-0.21 -0.19,0 -0.21,0.13 -0.21,0.27 h -0.27 c 0,-0.3 0.12,-0.48 0.5,-0.48 0.24,0 0.45,0.1 0.45,0.36 z" />
      <path
         style="fill:#1d1d1b;stroke:none;stroke-width:0.01"
         inkscape:connector-curvature="0"
         id="path524"
         d="m -62.648334,225.4481 c -0.01,0.33 -0.13,0.55 -0.49,0.55 -0.41,0 -0.52,-0.31 -0.52,-0.75 0,-0.43 0.11,-0.75 0.52,-0.75 0.43,0 0.5,0.34 0.5,0.52 h -0.3 c 0,-0.13 -0.03,-0.3 -0.2,-0.3 -0.2,0 -0.24,0.22 -0.24,0.53 0,0.32 0.04,0.54 0.24,0.54 0.16,0 0.22,-0.13 0.22,-0.34 z" />
      <path
         style="fill:#1d1d1b;stroke:none;stroke-width:0.01"
         inkscape:connector-curvature="0"
         id="path529"
         d="m -62.428334,224.5381 h 0.29 v 1.42 h -0.29 z m 0,-0.48 h 0.29 v 0.28 h -0.29 z" />
      <path
         style="fill:#1d1d1b;stroke:none;stroke-width:0.01"
         inkscape:connector-curvature="0"
         id="path534"
         d="m -61.388334,225.7881 c 0.21,0 0.25,-0.18 0.25,-0.54 0,-0.31 -0.04,-0.53 -0.25,-0.53 -0.21,0 -0.24,0.22 -0.24,0.53 0,0.36 0.03,0.54 0.24,0.54 z m 0,-1.29 c 0.42,0 0.53,0.32 0.53,0.75 0,0.44 -0.13,0.75 -0.53,0.75 -0.39,0 -0.53,-0.31 -0.53,-0.75 0,-0.43 0.12,-0.75 0.53,-0.75 z" />
      <path
         style="fill:#1d1d1b;stroke:none;stroke-width:0.01"
         inkscape:connector-curvature="0"
         id="path539"
         d="m -60.648334,224.5381 h 0.27 v 0.16 h 0.01 c 0.07,-0.12 0.199999,-0.2 0.36,-0.2 0.22,0 0.36,0.1 0.36,0.38 v 1.08 h -0.28 v -0.98 c 0,-0.18 -0.07,-0.25 -0.21,-0.25 -0.12,0 -0.23,0.09 -0.23,0.27 v 0.96 h -0.28 z" />
      <path
         style="fill:#1d1d1b;stroke:none;stroke-width:0.01"
         inkscape:connector-curvature="0"
         id="path544"
         d="m -58.678333,225.0981 v -0.08 c 0,-0.18 -0.06,-0.31 -0.22,-0.31 -0.18,0 -0.24,0.17 -0.24,0.36 v 0.03 z m -0.46,0.19 v 0.08 c 0,0.19 0.03,0.43 0.24,0.43 0.2,0 0.23,-0.23 0.23,-0.31 h 0.26 c 0,0.31 -0.18,0.51 -0.49,0.51 -0.23,0 -0.53,-0.07 -0.53,-0.73 0,-0.36 0.08,-0.77 0.53,-0.77 0.4,0 0.5,0.25 0.5,0.64 v 0.15 z" />
      <path
         style="fill:#1d1d1b;stroke:none;stroke-width:0.01"
         inkscape:connector-curvature="0"
         id="path549"
         d="m -57.558333,224.9581 v -0.04 c 0,-0.11 -0.04,-0.21 -0.19,-0.21 -0.12,0 -0.21,0.05 -0.21,0.18 0,0.11 0.05,0.15 0.2,0.21 l 0.19,0.06 c 0.21,0.07 0.31,0.18 0.31,0.41 0,0.3 -0.22,0.43 -0.51,0.43 -0.36,0 -0.47,-0.17 -0.47,-0.44 v -0.05 h 0.25 v 0.04 c 0,0.16 0.06,0.25 0.22,0.25 0.17,0 0.24,-0.08 0.24,-0.21 0,-0.1 -0.05,-0.17 -0.16,-0.2 l -0.23,-0.08 c -0.21,-0.08 -0.3,-0.18 -0.3,-0.41 0,-0.26 0.19,-0.4 0.48,-0.4 0.37,0 0.45,0.22 0.45,0.4 v 0.06 z" />
      <path
         style="fill:#1d1d1b;stroke:none;stroke-width:0.01"
         inkscape:connector-curvature="0"
         id="path554"
         d="m -56.198333,224.3281 h -0.45 v -0.25 h 1.19 v 0.25 h -0.44 v 1.63 h -0.3 z" />
      <path
         style="fill:#1d1d1b;stroke:none;stroke-width:0.01"
         inkscape:connector-curvature="0"
         id="path559"
         d="m -54.798333,225.0981 v -0.08 c 0,-0.18 -0.06,-0.31 -0.22,-0.31 -0.18,0 -0.24,0.17 -0.24,0.36 v 0.03 z m -0.46,0.19 v 0.08 c 0,0.19 0.02,0.43 0.24,0.43 0.2,0 0.23,-0.23 0.23,-0.31 h 0.27 c 0,0.31 -0.19,0.51 -0.5,0.51 -0.24,0 -0.53,-0.07 -0.53,-0.73 0,-0.36 0.08,-0.77 0.54,-0.77 0.39,0 0.49,0.25 0.49,0.64 v 0.15 z" />
      <path
         style="fill:#1d1d1b;stroke:none;stroke-width:0.01"
         inkscape:connector-curvature="0"
         id="path564"
         d="m -53.328333,225.4481 c -0.02,0.33 -0.14,0.55 -0.48,0.55 -0.42,0 -0.54,-0.31 -0.54,-0.75 0,-0.43 0.12,-0.75 0.54,-0.75 0.42,0 0.48,0.34 0.48,0.52 h -0.28 c 0,-0.13 -0.04,-0.3 -0.2,-0.3 -0.22,0 -0.26,0.22 -0.26,0.53 0,0.32 0.04,0.54 0.26,0.54 0.15,0 0.21,-0.13 0.21,-0.34 z" />
      <path
         style="fill:#1d1d1b;stroke:none;stroke-width:0.01"
         inkscape:connector-curvature="0"
         id="path569"
         d="m -53.128333,224.5381 h 0.28 v 0.16 c 0.08,-0.12 0.21,-0.2 0.37,-0.2 0.21,0 0.35,0.1 0.35,0.38 v 1.08 h -0.29 v -0.98 c 0,-0.18 -0.05,-0.25 -0.19,-0.25 -0.12,0 -0.23,0.09 -0.23,0.27 v 0.96 h -0.29 z" />
      <path
         style="fill:#1d1d1b;stroke:none;stroke-width:0.01"
         inkscape:connector-curvature="0"
         id="path574"
         d="m -51.388333,225.7881 c 0.210001,0 0.240001,-0.18 0.240001,-0.54 0,-0.31 -0.03,-0.53 -0.240001,-0.53 -0.21,0 -0.24,0.22 -0.24,0.53 0,0.36 0.03,0.54 0.24,0.54 z m 0,-1.29 c 0.41,0 0.530001,0.32 0.530001,0.75 0,0.44 -0.14,0.75 -0.530001,0.75 -0.399999,0 -0.53,-0.31 -0.53,-0.75 0,-0.43 0.11,-0.75 0.53,-0.75 z" />
      <path
         style="fill:#1d1d1b;stroke:none;stroke-width:0.01"
         inkscape:connector-curvature="0"
         id="path579"
         d="m -50.638332,224.0781 h 0.29 v 1.88 h -0.29 z" />
      <path
         style="fill:#1d1d1b;stroke:none;stroke-width:0.01"
         inkscape:connector-curvature="0"
         id="path584"
         d="m -49.578332,223.9781 h 0.32 l -0.28,0.38 h -0.21 z m -0.02,1.81 c 0.21,0 0.25,-0.19 0.25,-0.55 0,-0.31 -0.04,-0.53 -0.25,-0.53 -0.21,0 -0.25,0.22 -0.25,0.53 0,0.36 0.04,0.55 0.25,0.55 z m 0,-1.29 c 0.42,0 0.53,0.31 0.53,0.74 0,0.44 -0.13,0.76 -0.53,0.76 -0.4,0 -0.53,-0.32 -0.53,-0.76 0,-0.43 0.12,-0.74 0.53,-0.74 z" />
      <path
         style="fill:#1d1d1b;stroke:none;stroke-width:0.01"
         inkscape:connector-curvature="0"
         id="path589"
         d="m -48.368332,225.7081 c 0.22,0 0.24,-0.27 0.24,-0.5 0,-0.23 -0.02,-0.48 -0.22,-0.48 -0.2,0 -0.24,0.21 -0.24,0.47 0,0.24 0.01,0.51 0.22,0.51 z m -0.2,0.37 c 0,0.09 0.08,0.17 0.21,0.17 0.14,0 0.23,-0.1 0.23,-0.27 v -0.23 c -0.05,0.13 -0.18,0.2 -0.32,0.2 -0.33,0 -0.43,-0.34 -0.43,-0.72 0,-0.31 0.05,-0.73 0.46,-0.73 0.16,0 0.28,0.11 0.31,0.21 v -0.17 h 0.27 v 1.35 c 0,0.34 -0.15,0.55 -0.53,0.55 -0.42,0 -0.47,-0.24 -0.47,-0.36 z" />
      <path
         style="fill:#1d1d1b;stroke:none;stroke-width:0.01"
         inkscape:connector-curvature="0"
         id="path594"
         d="m -47.588332,224.5381 h 0.3 v 1.42 h -0.3 z m 0,-0.48 h 0.3 v 0.28 h -0.3 z" />
      <path
         style="fill:#1d1d1b;stroke:none;stroke-width:0.01"
         inkscape:connector-curvature="0"
         id="path599"
         d="m -46.058332,225.4481 c -0.02,0.33 -0.130001,0.55 -0.48,0.55 -0.42,0 -0.53,-0.31 -0.53,-0.75 0,-0.43 0.11,-0.75 0.53,-0.75 0.42,0 0.490001,0.34 0.490001,0.52 h -0.290001 c 0,-0.13 -0.03,-0.3 -0.2,-0.3 -0.2,0 -0.24,0.22 -0.24,0.53 0,0.32 0.04,0.54 0.24,0.54 0.16,0 0.22,-0.13 0.22,-0.34 z" />
      <path
         style="fill:#1d1d1b;stroke:none;stroke-width:0.01"
         inkscape:connector-curvature="0"
         id="path604"
         d="m -45.188332,225.2081 c -0.07,0.06 -0.240001,0.1 -0.32,0.14 -0.08,0.03 -0.119999,0.12 -0.119999,0.22 0,0.12 0.06,0.22 0.179998,0.22 0.180002,0 0.260001,-0.13 0.260001,-0.34 z m 0.269999,0.46 c 0,0.05 0.03,0.1 0.07,0.1 0.02,0 0.04,-0.01 0.05,-0.01 v 0.18 c -0.03,0.02 -0.08,0.03 -0.140001,0.03 -0.12,0 -0.23,-0.05 -0.239999,-0.18 -0.08,0.14 -0.200001,0.21 -0.36,0.21 -0.230002,0 -0.370001,-0.13 -0.370001,-0.4 0,-0.31 0.139999,-0.38 0.329999,-0.44 l 0.230002,-0.06 c 0.1,-0.03 0.159999,-0.06 0.159999,-0.18 0,-0.13 -0.04,-0.21 -0.200001,-0.21 -0.19,0 -0.219999,0.12999 -0.219999,0.26999 h -0.26 c 0,-0.29999 0.119999,-0.47999 0.500001,-0.47999 0.25,0 0.449998,0.1 0.449998,0.36 z" />
      <path
         style="fill:#1d1d1b;stroke:none;stroke-width:0.01"
         inkscape:connector-curvature="0"
         id="path609"
         d="m -44.018331,224.9581 v -0.04 c 0,-0.11 -0.05,-0.21 -0.200001,-0.21 -0.110001,0 -0.199999,0.05 -0.199999,0.18 0,0.11 0.05,0.15 0.199999,0.21 l 0.19,0.06 c 0.209999,0.07 0.310001,0.18 0.310001,0.41 0,0.3 -0.229999,0.43 -0.520001,0.43 -0.36,0 -0.46,-0.17 -0.46,-0.44 v -0.05 h 0.25 v 0.04 c 0,0.16 0.05,0.25 0.220001,0.25 0.15,0 0.239998,-0.08 0.239998,-0.21 0,-0.1 -0.06,-0.17 -0.17,-0.2 l -0.229999,-0.08 c -0.21,-0.08 -0.300001,-0.18 -0.300001,-0.41 0,-0.26 0.19,-0.4 0.480002,-0.4 0.369998,0 0.450001,0.22 0.450001,0.4 v 0.06 z" />
      <path
         style="fill:#1d1d1b;stroke:none;stroke-width:0.01"
         inkscape:connector-curvature="0"
         id="path614"
         d="m -70.128335,215.3581 h 2.300001 c 1.5,0 2.93,-0.92 2.93,-3.53001 0,-2.36 -0.82,-3.87 -3.39,-3.87 h -1.840001 z m -2.58,-9.57001 h 5.060001 c 3.04,0 5.32,1.91 5.32,5.8 0,3.41001 -1.74,5.94001 -5.32,5.94001 h -5.060001 z" />
      <path
         style="fill:#1d1d1b;stroke:none;stroke-width:0.01"
         inkscape:connector-curvature="0"
         id="path619"
         d="m -57.158333,205.78809 h 2.59 v 11.74001 h -2.59 z" />
      <path
         style="fill:#1d1d1b;stroke:none;stroke-width:0.01"
         inkscape:connector-curvature="0"
         id="path624"
         d="m -61.238334,205.78809 h 2.590001 v 11.74001 h -2.590001 z" />
      <path
         style="fill:#1d1d1b;stroke:none;stroke-width:0.01"
         inkscape:connector-curvature="0"
         id="path629"
         d="m -49.838332,207.95809 h -3.530001 v -2.17 h 9.630002 v 2.17 h -3.520001 v 9.57001 h -2.58 z" />
      <path
         style="fill:#0571a3;stroke:none;stroke-width:0.01"
         inkscape:connector-curvature="0"
         id="path634"
         d="m -70.808335,220.5981 h -1.9 v -1.9 h 1.9 z" />
      <path
         style="fill:#069bca;stroke:none;stroke-width:0.01"
         inkscape:connector-curvature="0"
         id="path639"
         d="m -68.348334,220.5981 h -1.900001 v -1.9 h 1.900001 z" />
      <path
         style="fill:#45ac4d;stroke:none;stroke-width:0.01"
         inkscape:connector-curvature="0"
         id="path644"
         d="m -65.888334,220.5981 h -1.9 v -1.9 h 1.9 z" />
      <path
         style="fill:none;stroke:#ffffff;stroke-width:0.08000001;stroke-linejoin:miter"
         inkscape:connector-curvature="0"
         id="path646"
         d="m -65.888334,220.5981 h -1.9 v -1.9 h 1.9 z" />
      <path
         style="fill:#157c35;stroke:none;stroke-width:0.01"
         inkscape:connector-curvature="0"
         id="path651"
         d="m -63.428334,220.5981 h -1.9 v -1.9 h 1.9 z" />
      <path
         style="fill:#fbbd23;stroke:none;stroke-width:0.01"
         inkscape:connector-curvature="0"
         id="path656"
         d="m -60.968334,220.5981 h -1.9 v -1.9 h 1.9 z" />
      <path
         style="fill:#ef8127;stroke:none;stroke-width:0.01"
         inkscape:connector-curvature="0"
         id="path661"
         d="m -58.508333,220.5981 h -1.900001 v -1.9 h 1.900001 z" />
      <path
         style="fill:#ca3b17;stroke:none;stroke-width:0.01"
         inkscape:connector-curvature="0"
         id="path666"
         d="m -56.048333,220.5981 h -1.9 v -1.9 h 1.9 z" />
      <path
         style="fill:#ae1a21;stroke:none;stroke-width:0.01"
         inkscape:connector-curvature="0"
         id="path671"
         d="m -53.578333,220.5981 h -1.91 v -1.9 h 1.91 z" />
      <path
         style="fill:#651315;stroke:none;stroke-width:0.01"
         inkscape:connector-curvature="0"
         id="path676"
         d="m -51.118332,220.5981 h -1.900001 v -1.9 h 1.900001 z" />
      <path
         style="fill:#943968;stroke:none;stroke-width:0.01"
         inkscape:connector-curvature="0"
         id="path681"
         d="m -48.658332,220.5981 h -1.9 v -1.9 h 1.9 z" />
      <path
         style="fill:#494e82;stroke:none;stroke-width:0.01"
         inkscape:connector-curvature="0"
         id="path686"
         d="m -46.198331,220.5981 h -1.900001 v -1.9 h 1.900001 z" />
      <path
         style="fill:#3a3852;stroke:none;stroke-width:0.01"
         inkscape:connector-curvature="0"
         id="path691"
         d="m -43.738331,220.5981 h -1.900002 v -1.9 h 1.900002 z" />
    </g>
    <path
       d="m -84.199422,205.78809 c -5.770791,0 -10.478542,-4.70775 -10.478542,-10.49023 0,-5.79415 4.707751,-10.51358 10.478542,-10.51358 5.794154,0 10.513586,4.71943 10.513586,10.51358 0,5.78248 -4.719432,10.49023 -10.513586,10.49023 z m 1.074722,-10.49023 c 0.01168,-2.97884 -2.371398,-5.40865 -5.315202,-5.40865 -2.932123,0 -5.326884,2.42981 -5.326884,5.40865 h 1.401812 c 0.02336,4.85962 4.076935,8.77301 8.983275,8.77301 1.506948,0.0818 4.731113,-0.71259 6.09788,-2.61671 -1.261631,0.52568 -2.406443,0.77099 -3.609665,0.66586 -3.562937,0 -6.460015,-2.95548 -6.460015,-6.55347 v -0.26869 h 2.31299 c -0.01168,2.9555 2.371398,5.3853 5.291838,5.3853 2.967168,0 5.350248,-2.4298 5.350248,-5.3853 h -1.553675 c -0.03504,-4.5442 -3.025577,-7.44128 -5.63061,-8.63282 -1.366766,-0.60745 -5.910971,-0.91118 -7.745008,0.44391 1.425175,-0.58408 6.074517,-0.50231 8.188915,1.05136 2.05599,1.51863 3.77321,4.39234 3.77321,6.83383 0,0.0818 0,0.18691 -0.01168,0.30372 h -1.880764 c -0.02336,-3.04894 -2.079352,-5.56051 -4.590932,-6.81046 -1.179858,-0.54905 -4.520842,-1.2149 -7.231011,0.99295 1.834037,-0.49064 4.298889,-0.99295 6.378243,0.22196 1.950854,1.16817 3.399392,3.23584 3.44612,5.29183 0,0.0818 -0.02336,0.22195 -0.02336,0.30372 z"
       id="path701"
       inkscape:connector-curvature="0"
       style="fill:#009270;stroke:none;stroke-width:0.01168176" />
  </g>
</svg>
