<?xml version="1.0" encoding="UTF-8" standalone="no"?>
<svg
   xmlns:dc="http://purl.org/dc/elements/1.1/"
   xmlns:cc="http://creativecommons.org/ns#"
   xmlns:rdf="http://www.w3.org/1999/02/22-rdf-syntax-ns#"
   xmlns:svg="http://www.w3.org/2000/svg"
   xmlns="http://www.w3.org/2000/svg"
   xmlns:sodipodi="http://sodipodi.sourceforge.net/DTD/sodipodi-0.dtd"
   xmlns:inkscape="http://www.inkscape.org/namespaces/inkscape"
   width="80.028755"
   height="14.972473"
   id="svg2279"
   sodipodi:version="0.32"
   inkscape:version="1.0.2 (e86c870879, 2021-01-15)"
   version="1.0"
   sodipodi:docname="by-nc-sa_80x15.svg"
   inkscape:output_extension="org.inkscape.output.svg.inkscape">
  <defs
     id="defs2281">
    <clipPath
       clipPathUnits="userSpaceOnUse"
       id="clipPath3442">
      <rect
         style="fill:#000000;fill-opacity:1;stroke:none;stroke-width:0.922435;stroke-miterlimit:4;stroke-dasharray:none;stroke-opacity:1"
         id="rect3444"
         width="20.614058"
         height="12.483703"
         x="171.99832"
         y="239.1203" />
    </clipPath>
  </defs>
  <sodipodi:namedview
     id="base"
     pagecolor="#ffffff"
     bordercolor="#999999"
     borderopacity="1"
     gridtolerance="10000"
     guidetolerance="10"
     objecttolerance="10"
     inkscape:pageopacity="0.0"
     inkscape:pageshadow="2"
     inkscape:zoom="10.5125"
     inkscape:cx="40.020566"
     inkscape:cy="7.4528891"
     inkscape:document-units="px"
     inkscape:current-layer="layer1"
     width="80px"
     height="15px"
     showborder="true"
     inkscape:showpageshadow="false"
     inkscape:window-width="1366"
     inkscape:window-height="747"
     inkscape:window-x="0"
     inkscape:window-y="2"
     inkscape:document-rotation="0"
     showgrid="false"
     fit-margin-top="0"
     fit-margin-left="0"
     fit-margin-right="0"
     fit-margin-bottom="0"
     inkscape:window-maximized="1" />
  <metadata
     id="metadata2284">
    <rdf:RDF>
      <cc:Work
         rdf:about="">
        <dc:format>image/svg+xml</dc:format>
        <dc:type
           rdf:resource="http://purl.org/dc/dcmitype/StillImage" />
        <dc:title></dc:title>
      </cc:Work>
    </rdf:RDF>
  </metadata>
  <g
     inkscape:label="Layer 1"
     inkscape:groupmode="layer"
     id="layer1"
     transform="translate(0.02056555,-0.04711085)">
    <g
       id="BY-NC-SA"
       transform="matrix(0.9875019,0,0,0.9333518,-323.90064,-331.6114)">
      <g
         transform="translate(158,118)"
         id="g3729">
        <rect
           y="237.86218"
           x="170.5"
           height="15"
           width="80"
           id="rect3731"
           style="fill:#ffffff;fill-opacity:1;stroke:#000000;stroke-width:1.04162;stroke-miterlimit:4;stroke-dasharray:none;stroke-opacity:1" />
        <rect
           style="fill:#000000;fill-opacity:1;stroke:none;stroke-width:0.922435;stroke-miterlimit:4;stroke-dasharray:none;stroke-opacity:1"
           id="rect3733"
           width="77"
           height="12"
           x="172"
           y="239.36218" />
        <path
           sodipodi:nodetypes="cccscc"
           id="path3735"
           d="m 171.99996,239.37505 v 12 h 20.33478 c 1.30865,-1.75031 2.19178,-3.78448 2.19178,-6 0,-2.20074 -0.86793,-4.25715 -2.16053,-6 z"
           style="fill:#abb1aa;fill-opacity:1;stroke:none;stroke-width:1;stroke-miterlimit:4;stroke-dasharray:none;stroke-opacity:0.469136" />
        <g
           clip-path="url(#clipPath3442)"
           transform="matrix(0.9612533,0,0,0.9612533,6.8341566,9.5069994)"
           id="g3737">
          <path
             style="opacity:1;fill:#ffffff"
             d="m 190.06417,245.36206 c 0.002,3.89199 -3.15091,7.04866 -7.04264,7.05117 -3.89174,0.002 -7.04891,-3.15067 -7.05117,-7.04263 0,-0.003 0,-0.006 0,-0.009 -0.002,-3.89199 3.1509,-7.04866 7.04264,-7.05093 3.89224,-0.002 7.04891,3.15068 7.05117,7.04267 0,0.002 0,0.005 0,0.008 z"
             rx="22.939548"
             type="arc"
             cy="264.3577"
             ry="22.939548"
             cx="296.35416"
             id="path3739" />
          <path
             style="opacity:1"
             id="path3741"
             d="m 188.74576,239.62226 c 1.56267,1.56266 2.34412,3.47643 2.34412,5.7398 0,2.26386 -0.76791,4.15707 -2.30373,5.67959 -1.62988,1.60356 -3.5562,2.40507 -5.77893,2.40507 -2.1959,0 -4.08885,-0.795 -5.67835,-2.38498 -1.58975,-1.58976 -2.38451,-3.48948 -2.38451,-5.69968 0,-2.20971 0.79476,-4.12298 2.38451,-5.7398 1.54912,-1.56316 3.44207,-2.34462 5.67835,-2.34462 2.26338,0 4.1759,0.78145 5.73854,2.34462 z m -10.36483,1.05129 c -1.32115,1.33445 -1.98148,2.89761 -1.98148,4.69074 0,1.79265 0.65381,3.34253 1.96117,4.64964 1.3076,1.3076 2.86425,1.96116 4.67043,1.96116 1.80619,0 3.37611,-0.66007 4.71056,-1.98097 1.26699,-1.22687 1.90073,-2.76945 1.90073,-4.62983 0,-1.8463 -0.64403,-3.41345 -1.93133,-4.70075 -1.28705,-1.28705 -2.84695,-1.93084 -4.67996,-1.93084 -1.83301,1e-5 -3.38338,0.64705 -4.65012,1.94085 z m 3.47668,3.90204 c -0.20188,-0.44014 -0.50407,-0.66034 -0.9071,-0.66034 -0.71249,0 -1.06861,0.47976 -1.06861,1.43879 0,0.95924 0.35612,1.43851 1.06861,1.43851 0.47049,0 0.80654,-0.23347 1.00818,-0.70144 l 0.9876,0.5259 c -0.47074,0.83638 -1.17695,1.25467 -2.11866,1.25467 -0.72627,0 -1.3081,-0.22269 -1.74498,-0.66759 -0.43763,-0.44539 -0.65581,-1.05932 -0.65581,-1.84203 0,-0.76893 0.2252,-1.37935 0.67587,-1.8315 0.45067,-0.45218 1.01192,-0.67816 1.68479,-0.67816 0.99538,0 1.70811,0.39225 2.13897,1.17595 z m 4.64637,0 c -0.20214,-0.44014 -0.49831,-0.66034 -0.88881,-0.66034 -0.72678,0 -1.09043,0.47976 -1.09043,1.43879 0,0.95924 0.36365,1.43851 1.09043,1.43851 0.47125,0 0.80127,-0.23347 0.98963,-0.70144 l 1.00967,0.5259 c -0.46999,0.83638 -1.17521,1.25467 -2.11516,1.25467 -0.72528,0 -1.30585,-0.22269 -1.74248,-0.66759 -0.43587,-0.44539 -0.65429,-1.05932 -0.65429,-1.84203 0,-0.76893 0.22168,-1.37935 0.66483,-1.8315 0.44289,-0.45218 1.00667,-0.67816 1.69183,-0.67816 0.99362,0 1.70535,0.39225 2.1347,1.17595 z" />
        </g>
      </g>
      <path
         id="text3743"
         d="m 357.4197,362.68502 c 0.24548,0 0.43161,-0.0536 0.5584,-0.16075 0.12678,-0.10716 0.19017,-0.26523 0.19018,-0.47422 -10e-6,-0.20628 -0.0634,-0.36301 -0.19018,-0.47019 -0.12679,-0.10984 -0.31292,-0.16476 -0.5584,-0.16476 h -0.86186 v 1.26992 h 0.86186 m 0.0526,2.62424 c 0.31292,0 0.5476,-0.0656 0.70407,-0.19691 0.15915,-0.13128 0.23873,-0.32954 0.23873,-0.59477 0,-0.25988 -0.0782,-0.45412 -0.23469,-0.58273 -0.15645,-0.13127 -0.39249,-0.19692 -0.70811,-0.19692 h -0.91446 v 1.57133 h 0.91446 m 1.44859,-2.15807 c 0.33449,0.0965 0.59345,0.27462 0.7769,0.5345 0.18342,0.25988 0.27514,0.5787 0.27515,0.95646 -10e-6,0.57871 -0.19694,1.01005 -0.59077,1.29404 -0.39384,0.284 -0.9927,0.42599 -1.79657,0.42599 h -2.58559 v -6 h 2.33877 c 0.83893,0 1.44588,0.12593 1.82084,0.37776 0.37765,0.25185 0.56648,0.65507 0.56648,1.20965 0,0.29203 -0.0688,0.54119 -0.20635,0.74749 -0.13758,0.20362 -0.3372,0.35499 -0.59886,0.45411 m 0.91657,-2.78901 h 1.7035 l 1.37575,2.13798 1.37574,-2.13798 H 366 l -2.30236,3.4722 v 2.5278 h -1.55782 v -2.5278 l -2.30236,-3.4722 m 5.32091,3.04621 h 2.54109 v 1.16946 h -2.54109 v -1.16946 m 3.75903,-3.04621 h 1.73992 l 2.19715,4.1152 v -4.1152 h 1.47691 v 6 h -1.73992 l -2.19716,-4.1152 v 4.1152 h -1.4769 v -6 m 11.73433,5.67046 c -0.28594,0.14735 -0.58403,0.25854 -0.89424,0.33356 -0.31022,0.075 -0.63392,0.11252 -0.97111,0.11252 -1.00619,0 -1.80331,-0.27863 -2.39138,-0.8359 -0.58807,-0.55994 -0.8821,-1.31814 -0.8821,-2.27461 0,-0.95914 0.29403,-1.71734 0.8821,-2.27461 0.58807,-0.55994 1.38519,-0.83992 2.39138,-0.83993 0.33719,10e-6 0.66089,0.0375 0.97111,0.11253 0.31021,0.075 0.6083,0.18621 0.89424,0.33356 v 1.2418 c -0.28864,-0.19559 -0.57323,-0.33891 -0.85377,-0.43001 -0.28056,-0.0911 -0.57593,-0.13663 -0.88615,-0.13664 -0.5557,10e-6 -0.9927,0.17683 -1.31101,0.53047 -0.31831,0.35366 -0.47747,0.84127 -0.47747,1.46283 0,0.61889 0.15916,1.10516 0.47747,1.45881 0.31831,0.35365 0.75531,0.53047 1.31101,0.53047 0.31022,0 0.60559,-0.0455 0.88615,-0.13663 0.28054,-0.0911 0.56513,-0.23443 0.85377,-0.43001 v 1.24179 m 1.17748,-2.62425 h 2.54109 v 1.16946 h -2.54109 v -1.16946 m 7.96315,-2.85732 v 1.26992 c -0.3318,-0.14735 -0.6555,-0.25854 -0.97111,-0.33356 -0.31562,-0.075 -0.61369,-0.11251 -0.89424,-0.11252 -0.37226,10e-6 -0.64741,0.0509 -0.82545,0.15271 -0.17804,0.10181 -0.26706,0.25988 -0.26705,0.47421 -1e-5,0.16076 0.0593,0.28668 0.17804,0.37777 0.12138,0.0884 0.33989,0.16477 0.65549,0.22906 l 0.66361,0.13263 c 0.67168,0.13396 1.14915,0.33757 1.4324,0.61085 0.28323,0.27327 0.42485,0.66175 0.42486,1.16544 -1e-5,0.66175 -0.19828,1.15471 -0.59481,1.47889 -0.39385,0.3215 -0.99675,0.48225 -1.80871,0.48225 -0.38305,0 -0.76745,-0.0362 -1.1532,-0.1085 -0.38575,-0.0723 -0.7715,-0.1795 -1.15725,-0.32151 v -1.30609 c 0.38575,0.20362 0.75801,0.35767 1.11679,0.46216 0.36147,0.1018 0.70945,0.15271 1.04394,0.15271 0.33989,0 0.60021,-0.0563 0.78095,-0.16878 0.18073,-0.11253 0.27109,-0.27328 0.2711,-0.48225 -1e-5,-0.18755 -0.062,-0.33222 -0.18613,-0.43404 -0.1214,-0.1018 -0.36552,-0.19288 -0.73238,-0.27327 l -0.60291,-0.13262 c -0.60425,-0.1286 -1.04665,-0.33355 -1.32719,-0.61486 -0.27784,-0.28132 -0.41677,-0.66042 -0.41677,-1.13732 0,-0.59744 0.19422,-1.05692 0.58267,-1.37843 0.38845,-0.32149 0.94684,-0.48224 1.67518,-0.48225 0.33179,10e-6 0.67303,0.0255 1.02372,0.0764 0.35068,0.0482 0.71349,0.12191 1.08845,0.22104 m 5.43421,4.71801 h -2.43588 l -0.3844,1.0931 h -1.56592 l 2.23761,-6 h 1.85726 l 2.23762,6 h -1.56593 l -0.38036,-1.0931 m -2.04743,-1.1132 h 1.65495 l -0.82546,-2.38713 -0.82949,2.38713"
         style="font-style:normal;font-weight:bold;font-size:8.25859px;font-family:'Bitstream Vera Sans';fill:#ffffff;fill-opacity:1;stroke:none;stroke-width:1px;stroke-linecap:butt;stroke-linejoin:miter;stroke-opacity:1" />
    </g>
  </g>
</svg>
