<?xml version="1.0" encoding="UTF-8" standalone="no"?>
<svg
   xmlns:dc="http://purl.org/dc/elements/1.1/"
   xmlns:cc="http://creativecommons.org/ns#"
   xmlns:rdf="http://www.w3.org/1999/02/22-rdf-syntax-ns#"
   xmlns:svg="http://www.w3.org/2000/svg"
   xmlns="http://www.w3.org/2000/svg"
   xmlns:sodipodi="http://sodipodi.sourceforge.net/DTD/sodipodi-0.dtd"
   xmlns:inkscape="http://www.inkscape.org/namespaces/inkscape"
   width="80.028755"
   height="14.972473"
   id="svg2279"
   sodipodi:version="0.32"
   inkscape:version="1.0.2 (e86c870879, 2021-01-15)"
   version="1.0"
   sodipodi:docname="by-sa.svg"
   inkscape:output_extension="org.inkscape.output.svg.inkscape"
   inkscape:export-filename="/home/vbettachini/documents/universitet/FCEyN/dictadas/21p_F2/git21p_F2/LaTeX/by-sa.png"
   inkscape:export-xdpi="198.76477"
   inkscape:export-ydpi="198.76477">
  <defs
     id="defs2281">
    <clipPath
       clipPathUnits="userSpaceOnUse"
       id="clipPath3442">
      <rect
         style="fill:#000000;fill-opacity:1;stroke:none;stroke-width:0.922435;stroke-miterlimit:4;stroke-dasharray:none;stroke-opacity:1"
         id="rect3444"
         width="20.614058"
         height="12.483703"
         x="171.99832"
         y="239.1203" />
    </clipPath>
  </defs>
  <sodipodi:namedview
     id="base"
     pagecolor="#ffffff"
     bordercolor="#999999"
     borderopacity="1"
     gridtolerance="10000"
     guidetolerance="10"
     objecttolerance="10"
     inkscape:pageopacity="0.0"
     inkscape:pageshadow="2"
     inkscape:zoom="7.43346"
     inkscape:cx="73.164435"
     inkscape:cy="10.929602"
     inkscape:document-units="px"
     inkscape:current-layer="layer1"
     width="80px"
     height="15px"
     showborder="true"
     inkscape:showpageshadow="false"
     inkscape:window-width="1366"
     inkscape:window-height="747"
     inkscape:window-x="0"
     inkscape:window-y="2"
     inkscape:document-rotation="0"
     showgrid="false"
     inkscape:window-maximized="1"
     fit-margin-top="0"
     fit-margin-left="0"
     fit-margin-right="0"
     fit-margin-bottom="0" />
  <metadata
     id="metadata2284">
    <rdf:RDF>
      <cc:Work
         rdf:about="">
        <dc:format>image/svg+xml</dc:format>
        <dc:type
           rdf:resource="http://purl.org/dc/dcmitype/StillImage" />
        <dc:title></dc:title>
      </cc:Work>
    </rdf:RDF>
  </metadata>
  <g
     inkscape:label="Layer 1"
     inkscape:groupmode="layer"
     id="layer1"
     transform="translate(0.02056555,-0.04712945)">
    <g
       id="BY-SA"
       transform="matrix(0.9875019,0,0,0.9333518,-323.90064,-356.81188)">
      <g
         id="g3747"
         transform="translate(158,145)">
        <rect
           style="fill:#ffffff;fill-opacity:1;stroke:#000000;stroke-width:1.04162;stroke-miterlimit:4;stroke-dasharray:none;stroke-opacity:1"
           id="rect3749"
           width="80"
           height="15"
           x="170.5"
           y="237.86218" />
        <rect
           y="239.36218"
           x="172"
           height="12"
           width="77"
           id="rect3751"
           style="fill:#000000;fill-opacity:1;stroke:none;stroke-width:0.922435;stroke-miterlimit:4;stroke-dasharray:none;stroke-opacity:1" />
        <path
           style="fill:#abb1aa;fill-opacity:1;stroke:none;stroke-width:1;stroke-miterlimit:4;stroke-dasharray:none;stroke-opacity:0.469136"
           d="m 171.99996,239.37505 v 12 h 20.33478 c 1.30865,-1.75031 2.19178,-3.78448 2.19178,-6 0,-2.20074 -0.86793,-4.25715 -2.16053,-6 z"
           id="path3753"
           sodipodi:nodetypes="cccscc" />
        <g
           id="g3755"
           transform="matrix(0.9612533,0,0,0.9612533,6.8341566,9.5069994)"
           clip-path="url(#clipPath3442)">
          <path
             id="path3757"
             cx="296.35416"
             ry="22.939548"
             cy="264.3577"
             type="arc"
             rx="22.939548"
             d="m 190.06417,245.36206 c 0.002,3.89199 -3.15091,7.04866 -7.04264,7.05117 -3.89174,0.002 -7.04891,-3.15067 -7.05117,-7.04263 0,-0.003 0,-0.006 0,-0.009 -0.002,-3.89199 3.1509,-7.04866 7.04264,-7.05093 3.89224,-0.002 7.04891,3.15068 7.05117,7.04267 0,0.002 0,0.005 0,0.008 z"
             style="opacity:1;fill:#ffffff" />
          <path
             d="m 188.74576,239.62226 c 1.56267,1.56266 2.34412,3.47643 2.34412,5.7398 0,2.26386 -0.76791,4.15707 -2.30373,5.67959 -1.62988,1.60356 -3.5562,2.40507 -5.77893,2.40507 -2.1959,0 -4.08885,-0.795 -5.67835,-2.38498 -1.58975,-1.58976 -2.38451,-3.48948 -2.38451,-5.69968 0,-2.20971 0.79476,-4.12298 2.38451,-5.7398 1.54912,-1.56316 3.44207,-2.34462 5.67835,-2.34462 2.26338,0 4.1759,0.78145 5.73854,2.34462 z m -10.36483,1.05129 c -1.32115,1.33445 -1.98148,2.89761 -1.98148,4.69074 0,1.79265 0.65381,3.34253 1.96117,4.64964 1.3076,1.3076 2.86425,1.96116 4.67043,1.96116 1.80619,0 3.37611,-0.66007 4.71056,-1.98097 1.26699,-1.22687 1.90073,-2.76945 1.90073,-4.62983 0,-1.8463 -0.64403,-3.41345 -1.93133,-4.70075 -1.28705,-1.28705 -2.84695,-1.93084 -4.67996,-1.93084 -1.83301,1e-5 -3.38338,0.64705 -4.65012,1.94085 z m 3.47668,3.90204 c -0.20188,-0.44014 -0.50407,-0.66034 -0.9071,-0.66034 -0.71249,0 -1.06861,0.47976 -1.06861,1.43879 0,0.95924 0.35612,1.43851 1.06861,1.43851 0.47049,0 0.80654,-0.23347 1.00818,-0.70144 l 0.9876,0.5259 c -0.47074,0.83638 -1.17695,1.25467 -2.11866,1.25467 -0.72627,0 -1.3081,-0.22269 -1.74498,-0.66759 -0.43763,-0.44539 -0.65581,-1.05932 -0.65581,-1.84203 0,-0.76893 0.2252,-1.37935 0.67587,-1.8315 0.45067,-0.45218 1.01192,-0.67816 1.68479,-0.67816 0.99538,0 1.70811,0.39225 2.13897,1.17595 z m 4.64637,0 c -0.20214,-0.44014 -0.49831,-0.66034 -0.88881,-0.66034 -0.72678,0 -1.09043,0.47976 -1.09043,1.43879 0,0.95924 0.36365,1.43851 1.09043,1.43851 0.47125,0 0.80127,-0.23347 0.98963,-0.70144 l 1.00967,0.5259 c -0.46999,0.83638 -1.17521,1.25467 -2.11516,1.25467 -0.72528,0 -1.30585,-0.22269 -1.74248,-0.66759 -0.43587,-0.44539 -0.65429,-1.05932 -0.65429,-1.84203 0,-0.76893 0.22168,-1.37935 0.66483,-1.8315 0.44289,-0.45218 1.00667,-0.67816 1.69183,-0.67816 0.99362,0 1.70535,0.39225 2.1347,1.17595 z"
             id="path3759"
             style="opacity:1" />
        </g>
      </g>
      <path
         id="text3761"
         d="m 357.4197,389.68502 c 0.24548,0 0.43161,-0.0536 0.5584,-0.16075 0.12678,-0.10717 0.19017,-0.26523 0.19018,-0.47422 -10e-6,-0.20629 -0.0634,-0.36302 -0.19018,-0.47019 -0.12679,-0.10984 -0.31292,-0.16476 -0.5584,-0.16477 h -0.86186 v 1.26993 h 0.86186 m 0.0526,2.62424 c 0.31292,0 0.5476,-0.0656 0.70407,-0.19691 0.15915,-0.13128 0.23873,-0.32954 0.23873,-0.59479 0,-0.25987 -0.0782,-0.45411 -0.23469,-0.58271 -0.15645,-0.13128 -0.39249,-0.19692 -0.70811,-0.19692 h -0.91446 v 1.57133 h 0.91446 m 1.44859,-2.15807 c 0.33449,0.0965 0.59345,0.27462 0.7769,0.53449 0.18342,0.25989 0.27514,0.57871 0.27515,0.95647 -10e-6,0.57871 -0.19694,1.01005 -0.59077,1.29404 -0.39384,0.28399 -0.9927,0.42599 -1.79657,0.42599 h -2.58559 v -6 h 2.33877 c 0.83893,0 1.44588,0.12592 1.82084,0.37776 0.37765,0.25184 0.56648,0.65506 0.56648,1.20965 0,0.29203 -0.0688,0.54119 -0.20635,0.74749 -0.13758,0.20361 -0.3372,0.35498 -0.59886,0.45411 m 0.91657,-2.78901 h 1.7035 l 1.37575,2.13797 1.37574,-2.13797 H 366 l -2.30236,3.4722 v 2.5278 h -1.55782 v -2.5278 l -2.30236,-3.4722 m 5.32091,3.04621 h 2.54109 v 1.16946 h -2.54109 v -1.16946 m 7.96316,-2.85734 v 1.26994 c -0.3318,-0.14736 -0.65551,-0.25854 -0.97111,-0.33356 -0.31562,-0.075 -0.61371,-0.11253 -0.89424,-0.11253 -0.37227,0 -0.64741,0.0509 -0.82545,0.15271 -0.17805,0.10182 -0.26706,0.25989 -0.26706,0.47422 0,0.16076 0.0593,0.28668 0.17803,0.37776 0.1214,0.0884 0.33989,0.16477 0.65551,0.22907 l 0.6636,0.13261 c 0.67168,0.13397 1.14915,0.33759 1.43239,0.61086 0.28324,0.27328 0.42486,0.66176 0.42487,1.16543 -1e-5,0.66177 -0.19827,1.15473 -0.59481,1.47891 -0.39385,0.3215 -0.99675,0.48225 -1.80871,0.48225 -0.38305,0 -0.76745,-0.0362 -1.15319,-0.10851 -0.38576,-0.0723 -0.77151,-0.17951 -1.15725,-0.3215 v -1.30609 c 0.38574,0.20362 0.758,0.35767 1.11678,0.46215 0.36147,0.10181 0.70945,0.15272 1.04395,0.15272 0.33989,0 0.6002,-0.0563 0.78094,-0.16879 0.18073,-0.11252 0.2711,-0.27328 0.2711,-0.48225 0,-0.18754 -0.062,-0.33222 -0.18612,-0.43403 -0.1214,-0.1018 -0.36553,-0.1929 -0.73239,-0.27327 l -0.6029,-0.13262 c -0.60425,-0.1286 -1.04665,-0.33356 -1.3272,-0.61487 -0.27785,-0.28131 -0.41677,-0.66041 -0.41677,-1.13731 0,-0.59744 0.19422,-1.05692 0.58268,-1.37843 0.38844,-0.3215 0.94683,-0.48225 1.67517,-0.48225 0.3318,0 0.67303,0.0254 1.02372,0.0764 0.35067,0.0482 0.71349,0.1219 1.08846,0.22102 m 5.4342,4.71802 h -2.43588 l -0.3844,1.09311 h -1.56592 l 2.23761,-6 h 1.85726 l 2.23761,6 h -1.56592 l -0.38036,-1.09311 m -2.04743,-1.11319 h 1.65494 l -0.82544,-2.38714 -0.8295,2.38714"
         style="font-style:normal;font-weight:bold;font-size:8.25859px;font-family:'Bitstream Vera Sans';fill:#ffffff;fill-opacity:1;stroke:none;stroke-width:1px;stroke-linecap:butt;stroke-linejoin:miter;stroke-opacity:1" />
    </g>
  </g>
</svg>
