<?xml version="1.0" encoding="UTF-8" standalone="no"?>
<!-- Created with Inkscape (http://www.inkscape.org/) -->

<svg
   xmlns:dc="http://purl.org/dc/elements/1.1/"
   xmlns:cc="http://creativecommons.org/ns#"
   xmlns:rdf="http://www.w3.org/1999/02/22-rdf-syntax-ns#"
   xmlns:svg="http://www.w3.org/2000/svg"
   xmlns="http://www.w3.org/2000/svg"
   xmlns:sodipodi="http://sodipodi.sourceforge.net/DTD/sodipodi-0.dtd"
   xmlns:inkscape="http://www.inkscape.org/namespaces/inkscape"
   width="17.969999mm"
   height="17.98mm"
   viewBox="0 0 17.969999 17.98"
   version="1.1"
   id="svg5622"
   inkscape:version="0.92.4 (5da689c313, 2019-01-14)"
   sodipodi:docname="unlam.svg">
  <defs
     id="defs5616" />
  <sodipodi:namedview
     id="base"
     pagecolor="#ffffff"
     bordercolor="#666666"
     borderopacity="1.0"
     inkscape:pageopacity="0.0"
     inkscape:pageshadow="2"
     inkscape:zoom="0.35"
     inkscape:cx="-528.89808"
     inkscape:cy="73.977965"
     inkscape:document-units="mm"
     inkscape:current-layer="layer1"
     showgrid="false"
     fit-margin-top="0"
     fit-margin-left="0"
     fit-margin-right="0"
     fit-margin-bottom="0"
     inkscape:window-width="1366"
     inkscape:window-height="739"
     inkscape:window-x="0"
     inkscape:window-y="0"
     inkscape:window-maximized="1" />
  <metadata
     id="metadata5619">
    <rdf:RDF>
      <cc:Work
         rdf:about="">
        <dc:format>image/svg+xml</dc:format>
        <dc:type
           rdf:resource="http://purl.org/dc/dcmitype/StillImage" />
        <dc:title></dc:title>
      </cc:Work>
    </rdf:RDF>
  </metadata>
  <g
     inkscape:label="Capa 1"
     inkscape:groupmode="layer"
     id="layer1"
     transform="translate(-245.77095,-150.42667)">
    <path
       d="m 254.74095,168.40667 c -4.94,0 -8.97,-4.03 -8.97,-8.98 0,-4.96 4.03,-9 8.97,-9 4.96,0 9,4.04 9,9 0,4.95 -4.04,8.98 -9,8.98 z m 0.92,-8.98 c 0.01,-2.55 -2.03,-4.63 -4.55,-4.63 -2.51,0 -4.56,2.08 -4.56,4.63 h 1.2 c 0.02,4.16 3.49,7.51 7.69,7.51 1.29,0.07 4.05,-0.61 5.22,-2.24 -1.08,0.45 -2.06,0.66 -3.09,0.57 -3.05,0 -5.53,-2.53 -5.53,-5.61 v -0.23 h 1.98 c -0.01,2.53 2.03,4.61 4.53,4.61 2.54,0 4.58,-2.08 4.58,-4.61 h -1.33 c -0.03,-3.89 -2.59,-6.37 -4.82,-7.39 -1.17,-0.52 -5.06,-0.78 -6.63,0.38 1.22,-0.5 5.2,-0.43 7.01,0.9 1.76,1.3 3.23,3.76 3.23,5.85 0,0.07 0,0.16 -0.01,0.26 h -1.61 c -0.02,-2.61 -1.78,-4.76 -3.93,-5.83 -1.01,-0.47 -3.87,-1.04 -6.19,0.85 1.57,-0.42 3.68,-0.85 5.46,0.19 1.67,1 2.91,2.77 2.95,4.53 0,0.07 -0.02,0.19 -0.02,0.26 z"
       id="path701"
       inkscape:connector-curvature="0"
       style="fill:#009270;stroke:none;stroke-width:0.01" />
  </g>
</svg>
